<?xml version="1.0" encoding="UTF-8"?>
<svg width="294px" height="345px" viewBox="0 0 294 345" version="1.1" xmlns="http://www.w3.org/2000/svg" xmlns:xlink="http://www.w3.org/1999/xlink">
    <!-- Generator: Sketch 48.2 (47327) - http://www.bohemiancoding.com/sketch -->
    <title>android</title>
    <desc>Created with Sketch.</desc>
    <defs></defs>
    <g id="Page-1" stroke="none" stroke-width="1" fill="none" fill-rule="evenodd">
        <g id="android" transform="translate(4.000000, 1.000000)" fill-rule="nonzero">
            <g id="b-link" transform="translate(52.000000, 26.000000)" fill="#000000" stroke="#001331" stroke-width="14.4">
                <g id="b">
                    <ellipse id="Oval" cx="91" cy="84" rx="91" ry="84"></ellipse>
                    <rect id="Rectangle-path" x="0" y="63" width="182" height="182" rx="22"></rect>
                </g>
            </g>
            <g id="a-link" transform="translate(181.500000, 170.000000) scale(-1, 1) translate(-181.500000, -170.000000) translate(77.000000, 0.000000)" fill="#ABB3C1" stroke="#001331" stroke-width="7.2">
                <g id="a">
                    <rect id="Rectangle-path" transform="translate(181.776518, 41.329950) rotate(29.000000) translate(-181.776518, -41.329950) " x="175.276518" y="-1.67005019" width="13" height="86" rx="6.5"></rect>
                    <rect id="c" x="0" y="110" width="48" height="133" rx="24"></rect>
                    <g id="c-link" transform="translate(85.000000, 207.000000)">
                        <rect id="c" x="0" y="0" width="48" height="133" rx="24"></rect>
                    </g>
                </g>
            </g>
            <g id="a" fill="#ABB3C1" stroke="#001331" stroke-width="7.2">
                <rect id="Rectangle-path" transform="translate(181.776518, 41.329950) rotate(29.000000) translate(-181.776518, -41.329950) " x="175.276518" y="-1.67005019" width="13" height="86" rx="6.5"></rect>
                <rect id="c" x="0" y="110" width="48" height="133" rx="24"></rect>
                <g id="c-link" transform="translate(85.000000, 207.000000)">
                    <rect id="c" x="0" y="0" width="48" height="133" rx="24"></rect>
                </g>
            </g>
            <g id="b" transform="translate(52.000000, 26.000000)" fill="#ABB3C1">
                <ellipse id="Oval" cx="91" cy="84" rx="91" ry="84"></ellipse>
                <rect id="Rectangle-path" x="0" y="63" width="182" height="182" rx="22"></rect>
            </g>
            <g id="Group" transform="translate(48.000000, 65.000000)" fill="#001331" stroke="#001331" stroke-width="7.2">
                <path d="M0,48.5 L190,48.5" id="Shape"></path>
                <circle id="Oval" cx="53" cy="4" r="4"></circle>
                <circle id="Oval" cx="137" cy="4" r="4"></circle>
            </g>
        </g>
    </g>
</svg>