<?xml version="1.0" encoding="UTF-8"?>
<svg width="101px" height="109px" viewBox="0 0 101 109" version="1.1" xmlns="http://www.w3.org/2000/svg" xmlns:xlink="http://www.w3.org/1999/xlink">
    <!-- Generator: Sketch 48.2 (47327) - http://www.bohemiancoding.com/sketch -->
    <title>electron</title>
    <desc>Created with Sketch.</desc>
    <defs></defs>
    <g id="Page-1" stroke="none" stroke-width="1" fill="none" fill-rule="evenodd">
        <g id="electron" fill="#ABB3C1">
            <path d="M36.2238023,23.2911116 C22.0456098,20.7087892 10.8294833,23.4129815 6.35475337,31.1634411 C3.01501806,36.9480324 3.96897711,44.6119961 8.66300295,52.7992053 C9.07505115,53.51789 9.99169132,53.7664681 10.7103761,53.3544199 C11.4290608,52.9423717 11.6776389,52.0257315 11.2655907,51.3070468 C7.05174551,43.9573574 6.23245169,37.3752738 8.95282958,32.6634411 C12.6471745,26.264648 22.6139893,23.861663 35.6862455,26.2425574 C36.5012647,26.3909997 37.2823046,25.8506322 37.4307468,25.0356129 C37.5791891,24.2205937 37.0388216,23.4395538 36.2238023,23.2911116 Z M16.0330763,62.7428537 C21.7622128,69.0387501 29.2047733,74.9435525 37.6923452,79.8438544 C58.2477432,91.711519 80.1333534,94.8840279 90.9292657,87.5227593 C91.6137225,87.0560576 91.7902479,86.1228593 91.3235462,85.4384026 C90.8568446,84.7539458 89.9236463,84.5774204 89.2391895,85.0441221 C79.6123828,91.6082279 58.8578863,88.5996837 39.1923452,77.2457782 C30.9666931,72.4966957 23.7675054,66.7849813 18.251915,60.7237561 C17.6943566,60.1110407 16.7456622,60.0663271 16.1329469,60.6238855 C15.5202315,61.1814439 15.4755179,62.1301383 16.0330763,62.7428537 Z M100.959747,82.4663524 C100.959747,78.6016132 97.8267566,75.4686231 93.9620175,75.4686231 C90.0972783,75.4686231 86.9642881,78.6016132 86.9642881,82.4663524 C86.9642881,86.3310916 90.0972783,89.4640817 93.9620175,89.4640817 C97.8267566,89.4640817 100.959747,86.3310916 100.959747,82.4663524 Z M97.9597468,82.4663524 C97.9597468,84.6742373 96.1699024,86.4640817 93.9620175,86.4640817 C91.7541325,86.4640817 89.9642881,84.6742373 89.9642881,82.4663524 C89.9642881,80.2584675 91.7541325,78.4686231 93.9620175,78.4686231 C96.1699024,78.4686231 97.9597468,80.2584675 97.9597468,82.4663524 Z" id="Shape"></path>
            <path d="M87.5009299,60.975107 C96.7844895,50.0080308 100.027723,38.9717125 95.5622014,31.2372015 C92.2757803,25.5449533 85.3330074,22.5417675 76.1119245,22.4218465 C75.2835674,22.4110736 74.6033182,23.0738566 74.5925453,23.9022137 C74.5817725,24.7305708 75.2445554,25.41082 76.0729125,25.4215928 C84.3370656,25.5290689 90.2889276,28.1036234 92.9641252,32.7372015 C96.6504792,39.1221541 93.7691791,48.9268573 85.2111547,59.036827 C84.6759134,59.669131 84.7545983,60.6156134 85.3869023,61.1508546 C86.0192062,61.6860959 86.9656886,61.607411 87.5009299,60.975107 Z M63.6254509,23.7749159 C55.2370468,25.5721681 46.3090158,29.0858953 37.7349308,34.0361455 C16.5149224,46.2875231 2.670597,64.3552712 4.59524568,77.4689935 C4.71554192,78.2886399 5.47751603,78.8555753 6.29716248,78.735279 C7.11680894,78.6149828 7.68374431,77.8530087 7.56344807,77.0333622 C5.86127554,65.4354961 18.9611645,48.3392862 39.2349308,36.6342217 C47.5441346,31.8369007 56.1796516,28.4382958 64.2539502,26.708342 C65.0639935,26.5347867 65.5799689,25.7374225 65.4064136,24.9273793 C65.2328583,24.117336 64.4354941,23.6013606 63.6254509,23.7749159 Z" id="Shape"></path>
            <path d="M29.2376332,86.55306 C34.0915037,100.106813 42.0366788,108.456237 50.9797702,108.456237 C57.5033681,108.456237 63.5348391,104.012348 68.2352101,96.1934338 C68.6620346,95.4834251 68.4324685,94.5618397 67.7224598,94.1350152 C67.0124512,93.7081907 66.0908658,93.9377568 65.6640412,94.6477655 C61.4547258,101.649825 56.2884702,105.456237 50.9797702,105.456237 C43.5966074,105.456237 36.5369879,98.0374252 32.0619837,85.5416035 C31.7826777,84.7616806 30.924003,84.3558505 30.1440802,84.6351565 C29.3641573,84.9144625 28.9583272,85.7731372 29.2376332,86.55306 Z M73.6097725,83.9032561 C76.1208787,75.8787102 77.4694488,66.6223105 77.4694488,56.9768802 C77.4694488,32.9037588 69.0427924,12.1489283 57.0288139,6.81435674 C56.2716713,6.47816242 55.3853467,6.81940842 55.0491524,7.57655099 C54.712958,8.33369357 55.054204,9.2200182 55.8113466,9.5562126 C66.4858638,14.2960226 74.4694488,33.9595697 74.4694488,56.9768802 C74.4694488,66.325162 73.164846,75.2797758 70.7466818,83.0073144 C70.4992744,83.7979351 70.9396357,84.6394232 71.7302564,84.8868306 C72.520877,85.1342381 73.3623651,84.6938767 73.6097725,83.9032561 Z" id="Shape"></path>
            <path d="M100.959747,82.4663524 C100.959747,78.6016132 97.8267566,75.4686231 93.9620175,75.4686231 C90.0972783,75.4686231 86.9642881,78.6016132 86.9642881,82.4663524 C86.9642881,86.3310916 90.0972783,89.4640817 93.9620175,89.4640817 C97.8267566,89.4640817 100.959747,86.3310916 100.959747,82.4663524 Z M97.9597468,82.4663524 C97.9597468,84.6742373 96.1699024,86.4640817 93.9620175,86.4640817 C91.7541325,86.4640817 89.9642881,84.6742373 89.9642881,82.4663524 C89.9642881,80.2584675 91.7541325,78.4686231 93.9620175,78.4686231 C96.1699024,78.4686231 97.9597468,80.2584675 97.9597468,82.4663524 Z" id="Shape"></path>
            <path d="M7.89756569,89.4640817 C11.7623049,89.4640817 14.895295,86.3310916 14.895295,82.4663524 C14.895295,78.6016132 11.7623049,75.4686231 7.89756569,75.4686231 C4.03282651,75.4686231 0.899836384,78.6016132 0.899836384,82.4663524 C0.899836384,86.3310916 4.03282651,89.4640817 7.89756569,89.4640817 Z M7.89756569,86.4640817 C5.68968076,86.4640817 3.89983638,84.6742373 3.89983638,82.4663524 C3.89983638,80.2584675 5.68968076,78.4686231 7.89756569,78.4686231 C10.1054506,78.4686231 11.895295,80.2584675 11.895295,82.4663524 C11.895295,84.6742373 10.1054506,86.4640817 7.89756569,86.4640817 Z" id="Shape"></path>
            <path d="M50.9797702,13.9952522 C54.8445093,13.9952522 57.9774995,10.8622621 57.9774995,6.99752288 C57.9774995,3.1327837 54.8445093,-0.000206427 50.9797702,-0.000206427 C47.115031,-0.000206427 43.9820409,3.1327837 43.9820409,6.99752288 C43.9820409,10.8622621 47.115031,13.9952522 50.9797702,13.9952522 Z M50.9797702,10.9952522 C48.7718852,10.9952522 46.9820409,9.2054078 46.9820409,6.99752288 C46.9820409,4.78963795 48.7718852,2.99979357 50.9797702,2.99979357 C53.1876551,2.99979357 54.9774995,4.78963795 54.9774995,6.99752288 C54.9774995,9.2054078 53.1876551,10.9952522 50.9797702,10.9952522 Z" id="Shape"></path>
            <path d="M52.0412978,61.8916841 C49.3267926,62.4782009 46.6524598,60.753084 46.0647952,58.0385788 C45.4794263,55.3240736 47.2033953,52.6497408 49.9179005,52.0620763 C52.6324057,51.4755595 55.3067385,53.2006763 55.8944031,55.9151815 C56.4809198,58.6296867 54.755803,61.3040196 52.0412978,61.8916841 Z" id="Shape"></path>
        </g>
    </g>
</svg>