<svg xmlns="http://www.w3.org/2000/svg" viewBox="0 0 251 63.07"><defs><style>.cls-1{fill:#f38027;}.cls-2{fill:#fff;}</style></defs><title>fastspring-logo-orange-white</title><g id="Layer_2" data-name="Layer 2"><g id="Layer_1-2" data-name="Layer 1"><path class="cls-1" d="M182.58,25.84c4.5.1,9.1,1.12,9.82,2.16a1.47,1.47,0,0,0,1.27,1.51,1.52,1.52,0,0,0,1.28-1.67c0-4.17-6.68-5.2-12.32-5.34h0c-4.43,0-11.92,1.23-11.92,5.84a3.9,3.9,0,0,0,1.22,2.83l0,0,0,0a7.28,7.28,0,0,0,1.89,1.28c-1.74.85-3,2.08-3.15,3.82a3.84,3.84,0,0,0,0,.42c0,2.94,3,4.5,6.4,5.25a24.64,24.64,0,0,0,5.52.6,16.86,16.86,0,0,1,7.81,1.72,1,1,0,0,1-.07,1.87,18.71,18.71,0,0,1-7.72,1.4c-4.5-.1-9.1-1.12-9.82-2.16a1.23,1.23,0,0,0-1.27-1.51,1.52,1.52,0,0,0-1.28,1.67c0,4.17,6.68,5.2,12.32,5.34h0c4.43,0,11.92-1.23,11.92-5.84a3.9,3.9,0,0,0-1.22-2.83l0,0,0,0a7.28,7.28,0,0,0-1.89-1.28c1.74-.85,3-2.08,3.15-3.82a3.93,3.93,0,0,0,0-.42c0-2.94-3-4.5-6.4-5.25a24.66,24.66,0,0,0-5.52-.6c-3.52,0-5.87-.46-8-1.8a.93.93,0,0,1,0-1.63C176.13,26.43,178.69,25.85,182.58,25.84Zm0,8.35a25.11,25.11,0,0,1,3.53.24,14,14,0,0,1,4.68,1.46,1,1,0,0,1,0,1.66A13.76,13.76,0,0,1,186.4,39a24.77,24.77,0,0,1-3.81.28,25.11,25.11,0,0,1-3.53-.24,14,14,0,0,1-4.68-1.46,1,1,0,0,1,0-1.66,13.76,13.76,0,0,1,4.43-1.42A24.77,24.77,0,0,1,182.6,34.19Z"/><path class="cls-1" d="M11.86,36,4.6,35.93v15H0V16.79H18.76a1.26,1.26,0,0,0,0,.25l0,.68a6.41,6.41,0,0,1-.55,2.86l-4.52-.15-2.11-.05-2.31-.05Q7,20.28,4.6,20.28V32.56H6.08l1.91,0H10.1l2.84-.06,4.5-.09a2.15,2.15,0,0,0,0,.3l0,.83a9.52,9.52,0,0,1-.33,2.59Q14.34,36.05,11.86,36Z"/><path class="cls-1" d="M35.25,49a8.25,8.25,0,0,1-6.38,2.43,8.41,8.41,0,0,1-6.14-2.3,7.84,7.84,0,0,1-2.3-5.87q0-6.17,5.34-7.66a18.66,18.66,0,0,1,3.9-.61l6.73-.37V32q0-3.15-1.28-4.49T30.24,26.2A13.56,13.56,0,0,0,23.48,28a7.48,7.48,0,0,1-1.36-3.42,18.76,18.76,0,0,1,8-2.08,20.13,20.13,0,0,1,5.62.6,7.35,7.35,0,0,1,3.1,1.75Q41,27,41,31.68V46.79l2.72,2.78V50.9H39.1L37,49Zm-4.54-1.36a8.29,8.29,0,0,0,5.69-1.95V37.84l-6.17.4q-5.1.27-5.1,4.75,0,3.74,3.31,4.43A11,11,0,0,0,30.72,47.64Z"/><path class="cls-1" d="M64,27.35A12.7,12.7,0,0,0,58,26.15a8.57,8.57,0,0,0-3.91.61,3.88,3.88,0,0,0-1.52,1.48,4.21,4.21,0,0,0-.47,2A5.36,5.36,0,0,0,52.29,32a2.49,2.49,0,0,0,.84,1.09,10.69,10.69,0,0,0,3.92,1.52A27.89,27.89,0,0,1,61.45,36a8.69,8.69,0,0,1,2.63,1.64,7,7,0,0,1,2,5.37q0,6.06-6,7.85a15.4,15.4,0,0,1-4.3.59,25,25,0,0,1-8.6-1.31,8.81,8.81,0,0,1,.69-3.82,26.14,26.14,0,0,0,6.35,1.17q2.14,0,3.23-.09a5.46,5.46,0,0,0,1.92-.49q1.79-.85,1.79-3.5a3.63,3.63,0,0,0-2.72-3.71,20.28,20.28,0,0,0-2.24-.59q-8.92-1.79-8.92-7.9a7.8,7.8,0,0,1,2.94-6.57q2.78-2.14,7.9-2.14a15.23,15.23,0,0,1,7.13,1.39A8.25,8.25,0,0,1,64,27.35Z"/><path class="cls-1" d="M87.77,49.59a11.7,11.7,0,0,1-6.91,1.84q-5.69,0-6.81-4.54a14.38,14.38,0,0,1-.37-3.47V27.64H69.8a17.35,17.35,0,0,1-.11-1.92q0-.83.11-1.9h3.87V19l2.88-3.26h1.71v8.12h8.06a12.14,12.14,0,0,1,.08,1.6,5,5,0,0,1-.59,2.22H78.26V43.42a4.81,4.81,0,0,0,.83,3.14,3.64,3.64,0,0,0,2.9,1,9.74,9.74,0,0,0,4.55-1.33A7.27,7.27,0,0,1,87.77,49.59Z"/><path class="cls-2" d="M95.48,49.82a13.1,13.1,0,0,1,1-4A26,26,0,0,0,104,47.28a21.65,21.65,0,0,0,4.4-.33,6.13,6.13,0,0,0,2.32-1,4.45,4.45,0,0,0,1.63-3.87,4.9,4.9,0,0,0-1.16-3.69,10.92,10.92,0,0,0-4.72-2,30.13,30.13,0,0,1-5.45-1.8,11.24,11.24,0,0,1-3.16-2.14,8.28,8.28,0,0,1-2.24-6.13q0-5.17,3.27-7.76,3.06-2.44,8.54-2.44A17.6,17.6,0,0,1,116.23,18a7.92,7.92,0,0,1-1.43,3.62,12.71,12.71,0,0,0-6.67-1.53q-4.16,0-5.83,1.29a4.75,4.75,0,0,0-1.67,4,4.82,4.82,0,0,0,1.28,3.74,11.9,11.9,0,0,0,4.85,2.14,38.42,38.42,0,0,1,5.4,1.73,10.44,10.44,0,0,1,3.09,2q2.24,2.11,2.24,6.33,0,5.27-2.89,7.74t-8.89,2.56A26.92,26.92,0,0,1,95.48,49.82Z"/><path class="cls-2" d="M132.93,51.43a24.26,24.26,0,0,1-5.26-.53V61.44h-4.59V26.58l-2.16-2.22V23H125l2.16,1.9h1.68a8.09,8.09,0,0,1,3.28-1.86,13.25,13.25,0,0,1,3.8-.57,11.38,11.38,0,0,1,3.83.69,8.82,8.82,0,0,1,3.5,2.35q3.39,3.63,3.39,11.16,0,6.81-4.06,10.89A13,13,0,0,1,132.93,51.43Zm3.68-24.72a15.21,15.21,0,0,0-4-.45,9.07,9.07,0,0,0-5,1.76V47.37a14,14,0,0,0,4,.53,10.39,10.39,0,0,0,4.11-.8A9.11,9.11,0,0,0,139,44.84a11.75,11.75,0,0,0,2.75-8.14Q141.77,28.12,136.61,26.71Z"/><path class="cls-2" d="M165.68,27.62a7.3,7.3,0,0,0-3-.53,6,6,0,0,0-4.59,1.74,4.3,4.3,0,0,0-1,1.74V50.9h-4.59V26.58l-2.16-2.22V23h3.84l2.59,2.67h1.09a7.84,7.84,0,0,1,3.76-2.83,5.41,5.41,0,0,1,2-.37,12.64,12.64,0,0,1,3.5.37A10.11,10.11,0,0,1,165.68,27.62Z"/><path class="cls-2" d="M217.27,27.75q-1.47-1.49-5.13-1.5a8.87,8.87,0,0,0-5.85,1.82V50.9h-4.59V26.58l-2.16-2.22V23h4.32l1.87,1.9h1.71a10,10,0,0,1,3.4-1.84,12.47,12.47,0,0,1,3.72-.59,9.63,9.63,0,0,1,3.52.65A7.82,7.82,0,0,1,221,25a9.44,9.44,0,0,1,2.4,6.81V50.9h-4.62V32.4A6.41,6.41,0,0,0,217.27,27.75Z"/><path class="cls-2" d="M244.57,46.46q6.14,0,6.14,7.13a8.2,8.2,0,0,1-3.28,6.75q-3.42,2.72-9.5,2.72a14.15,14.15,0,0,1-8-2A6.09,6.09,0,0,1,227,55.81a5.93,5.93,0,0,1,1.63-4,7.43,7.43,0,0,1,1.63-1.44v-.8A5,5,0,0,1,229,45.88a6.17,6.17,0,0,1,1.44-3.79,7.9,7.9,0,0,1,1.47-1.41V39.58A9.23,9.23,0,0,1,228.23,32a8.78,8.78,0,0,1,3.1-6.94A11.23,11.23,0,0,1,239,22.49a12,12,0,0,1,3.44.53H251v1.84l-3.36,1.44a9.22,9.22,0,0,1,2,5.34,10,10,0,0,1-.83,4.28,9.09,9.09,0,0,1-2.27,3A11.26,11.26,0,0,1,239,41.55a12.4,12.4,0,0,1-4.4-.61,4.6,4.6,0,0,0-1.44,3.5q0,2,2.54,2Zm-12.92,7.78a10.19,10.19,0,0,0,.17,2.11,2.73,2.73,0,0,0,.81,1.4q1.49,1.39,5.45,1.39t6-1.68a4.68,4.68,0,0,0,1.68-3.82,3.51,3.51,0,0,0-.49-2.1,2.24,2.24,0,0,0-1.88-.65H232.9l-.37.59A5.31,5.31,0,0,0,231.64,54.25ZM239,38.19a5.87,5.87,0,0,0,4.37-1.58A6.21,6.21,0,0,0,244.89,32a6.28,6.28,0,0,0-1.58-4.43A5.58,5.58,0,0,0,239,25.88a5.75,5.75,0,0,0-4.4,1.74A6.22,6.22,0,0,0,233,32q0,4.27,3.44,5.69A6.7,6.7,0,0,0,239,38.19Z"/><path class="cls-1" d="M182.6,0a9.32,9.32,0,1,0,9.32,9.32A9.32,9.32,0,0,0,182.6,0Zm-3.38,8.62a3,3,0,1,1,3-3A3,3,0,0,1,179.22,8.62Z"/></g></g></svg>