<?xml version="1.0" encoding="UTF-8" standalone="no"?>
<svg
   xmlns:dc="http://purl.org/dc/elements/1.1/"
   xmlns:cc="http://creativecommons.org/ns#"
   xmlns:rdf="http://www.w3.org/1999/02/22-rdf-syntax-ns#"
   xmlns:svg="http://www.w3.org/2000/svg"
   xmlns="http://www.w3.org/2000/svg"
   viewBox="0 0 1733.8 688"
   height="688"
   width="1733.8"
   xml:space="preserve"
   id="svg2"
   version="1.1"><metadata
     id="metadata8"><rdf:RDF><cc:Work
         rdf:about=""><dc:format>image/svg+xml</dc:format><dc:type
           rdf:resource="http://purl.org/dc/dcmitype/StillImage" /></cc:Work></rdf:RDF></metadata><defs
     id="defs6"><clipPath
       id="clipPath22"
       clipPathUnits="userSpaceOnUse"><path
         id="path20"
         d="m 3981,2289.91 c 53.09,0 96.22,-43.08 96.22,-96.21 0,-53.11 -43.13,-96.21 -96.22,-96.21 -53.15,0 -96.2,43.1 -96.2,96.21 0,53.13 43.05,96.21 96.2,96.21 z m 520.08,1319.38 c 53.2,0 96.25,-43.06 96.25,-96.18 0,-53.15 -43.05,-96.22 -96.25,-96.22 -53.05,0 -96.18,43.07 -96.18,96.22 0,53.12 43.13,96.18 96.18,96.18 z M 2799.04,3420.67 h 1523.48 c 33.55,-64.57 100.93,-108.83 178.56,-108.83 111.01,0 201.29,90.28 201.29,201.27 0,110.96 -90.28,201.24 -201.29,201.24 -84.2,0 -156.38,-52.03 -186.33,-125.6 H 2799.04 c -147.3,0 -262.67,-111.72 -262.67,-254.32 V 1712.69 c 0,-144.74 120.3,-267.04 262.67,-267.04 h 1621.7 c 142.67,0 258.74,119.8 258.74,267.04 v 962.03 c 0,144.86 -116.07,262.69 -258.74,262.69 h -962.03 c -146.89,0 -271,-120.29 -271,-262.69 v -302.34 c 0,-140.29 121.57,-254.39 271,-254.39 h 335.93 c 30,-73.53 102.19,-125.54 186.36,-125.54 111,0 201.28,90.28 201.28,201.25 0,110.99 -90.28,201.28 -201.28,201.28 -77.67,0 -145.07,-44.3 -178.61,-108.9 h -343.68 c -49.49,0 -102.92,32.99 -102.92,86.3 v 302.34 c 0,49.53 49.06,94.61 102.92,94.61 h 962.03 c 50.82,0 90.66,-41.55 90.66,-94.61 v -962.03 c 0,-53.63 -41.52,-98.95 -90.66,-98.95 h -1621.7 c -50.39,0 -94.59,46.25 -94.59,98.95 v 1621.74 c 0,49.16 40.67,86.24 94.59,86.24 z" /></clipPath></defs><g
     transform="matrix(1.3333333,0,0,-1.3333333,0,688)"
     id="g10"><g
       transform="scale(0.1)"
       id="g12"><path
         id="path14"
         style="fill:#231f20;fill-opacity:1;fill-rule:nonzero;stroke:none"
         d="m 3981,2289.91 c 53.09,0 96.22,-43.08 96.22,-96.21 0,-53.11 -43.13,-96.21 -96.22,-96.21 -53.15,0 -96.2,43.1 -96.2,96.21 0,53.13 43.05,96.21 96.2,96.21 z m 520.08,1319.38 c 53.2,0 96.25,-43.06 96.25,-96.18 0,-53.15 -43.05,-96.22 -96.25,-96.22 -53.05,0 -96.18,43.07 -96.18,96.22 0,53.12 43.13,96.18 96.18,96.18 z M 2799.04,3420.67 h 1523.48 c 33.55,-64.57 100.93,-108.83 178.56,-108.83 111.01,0 201.29,90.28 201.29,201.27 0,110.96 -90.28,201.24 -201.29,201.24 -84.2,0 -156.38,-52.03 -186.33,-125.6 H 2799.04 c -147.3,0 -262.67,-111.72 -262.67,-254.32 V 1712.69 c 0,-144.74 120.3,-267.04 262.67,-267.04 h 1621.7 c 142.67,0 258.74,119.8 258.74,267.04 v 962.03 c 0,144.86 -116.07,262.69 -258.74,262.69 h -962.03 c -146.89,0 -271,-120.29 -271,-262.69 v -302.34 c 0,-140.29 121.57,-254.39 271,-254.39 h 335.93 c 30,-73.53 102.19,-125.54 186.36,-125.54 111,0 201.28,90.28 201.28,201.25 0,110.99 -90.28,201.28 -201.28,201.28 -77.67,0 -145.07,-44.3 -178.61,-108.9 h -343.68 c -49.49,0 -102.92,32.99 -102.92,86.3 v 302.34 c 0,49.53 49.06,94.61 102.92,94.61 h 962.03 c 50.82,0 90.66,-41.55 90.66,-94.61 v -962.03 c 0,-53.63 -41.52,-98.95 -90.66,-98.95 h -1621.7 c -50.39,0 -94.59,46.25 -94.59,98.95 v 1621.74 c 0,49.16 40.67,86.24 94.59,86.24" /><g
         id="g16"><g
           clip-path="url(#clipPath22)"
           id="g18"><path
             id="path24"
             style="fill:#231f20;fill-opacity:1;fill-rule:nonzero;stroke:none"
             d="m 2470.77,3667.98 h 321.47 v -342.9 h -321.47 v 342.9" /><path
             id="path26"
             style="fill:#231f20;fill-opacity:1;fill-rule:nonzero;stroke:none"
             d="m 2470.77,1719.42 h 321.47 v -342.9 h -321.47 v 342.9" /><path
             id="path28"
             style="fill:#231f20;fill-opacity:1;fill-rule:nonzero;stroke:none"
             d="m 4414.44,1719.42 h 321.47 v -342.9 h -321.47 v 342.9" /><path
             id="path30"
             style="fill:#231f20;fill-opacity:1;fill-rule:nonzero;stroke:none"
             d="m 4414.44,3010.9 h 321.47 V 2668 h -321.47 v 342.9" /><path
             id="path32"
             style="fill:#231f20;fill-opacity:1;fill-rule:nonzero;stroke:none"
             d="m 3143.55,3010.9 h 321.47 V 2668 h -321.47 v 342.9" /><path
             id="path34"
             style="fill:#231f20;fill-opacity:1;fill-rule:nonzero;stroke:none"
             d="m 3143.55,2379.11 h 321.47 v -342.9 h -321.47 v 342.9" /><path
             id="path36"
             style="fill:#231f20;fill-opacity:1;fill-rule:nonzero;stroke:none"
             d="M 2785.93,1712.69 H 2470.77 V 3331.8 h 315.16 V 1712.69" /><path
             id="path38"
             style="fill:#231f20;fill-opacity:1;fill-rule:nonzero;stroke:none"
             d="M 4420.74,1376.52 H 2785.93 v 336.17 h 1634.81 v -336.17" /><path
             id="path40"
             style="fill:#231f20;fill-opacity:1;fill-rule:nonzero;stroke:none"
             d="m 4735.91,2674.72 h -315.17 v -962.03 h 315.17 v 962.03" /><path
             id="path42"
             style="fill:#231f20;fill-opacity:1;fill-rule:nonzero;stroke:none"
             d="m 3458.71,3010.9 h 962.03 v -336.18 h -962.03 v 336.18" /><path
             id="path44"
             style="fill:#231f20;fill-opacity:1;fill-rule:nonzero;stroke:none"
             d="m 3143.55,2372.38 h 315.16 v 302.34 h -315.16 v -302.34" /><path
             id="path46"
             style="fill:#231f20;fill-opacity:1;fill-rule:nonzero;stroke:none"
             d="m 4260.74,3737.48 v -69.5 H 2785.93 V 3331.8 h 1474.81 v -69.49 h 475.17 v 475.17 h -475.17" /><path
             id="path48"
             style="fill:#231f20;fill-opacity:1;fill-rule:nonzero;stroke:none"
             d="m 3747.19,2430.08 v -57.7 h -288.48 v -336.17 h 288.48 v -78.88 h 472.73 v 472.75 h -472.73" /></g></g><path
         id="path50"
         style="fill:#231f20;fill-opacity:1;fill-rule:nonzero;stroke:none"
         d="m 5529.81,2349.12 c -105.79,0 -191.86,86.07 -191.86,191.86 0,105.79 86.07,191.86 191.86,191.86 105.78,0 191.86,-86.07 191.86,-191.86 0,-105.79 -86.08,-191.86 -191.86,-191.86 z m 0,511.62 c -176.32,0 -319.76,-143.45 -319.76,-319.76 0,-176.31 143.44,-319.76 319.76,-319.76 71.93,0 138.38,23.89 191.86,64.13 v -228.58 c 0,-105.79 -86.08,-191.86 -191.86,-191.86 v -127.9 c 176.31,0 319.76,143.45 319.76,319.76 v 484.21 c 0,176.31 -143.45,319.76 -319.76,319.76" /><path
         id="path52"
         style="fill:#231f20;fill-opacity:1;fill-rule:nonzero;stroke:none"
         d="m 6425.18,2522.71 c 0,-105.78 -86.07,-191.86 -191.86,-191.86 -105.79,0 -191.86,86.08 -191.86,191.86 v 292.36 h -127.9 v -292.36 c 0,-176.31 143.44,-319.75 319.76,-319.75 176.32,0 319.76,143.44 319.76,319.75 v 292.36 h -127.9 v -292.36" /><path
         id="path54"
         style="fill:#231f20;fill-opacity:1;fill-rule:nonzero;stroke:none"
         d="m 7448.38,2842.48 c -104.49,0 -197.43,-50.4 -255.81,-128.14 -58.4,77.74 -151.33,128.14 -255.81,128.14 -176.32,0 -319.76,-143.45 -319.76,-319.77 v -292.35 h 127.9 v 292.35 c 0,105.8 86.07,191.87 191.86,191.87 105.79,0 191.86,-86.07 191.86,-191.87 v -292.35 h 127.9 v 292.35 c 0,105.8 86.07,191.87 191.86,191.87 105.79,0 191.86,-86.07 191.86,-191.87 v -292.35 h 127.9 v 292.35 c 0,176.32 -143.45,319.77 -319.76,319.77" /><path
         id="path56"
         style="fill:#231f20;fill-opacity:1;fill-rule:nonzero;stroke:none"
         d="m 7841.23,2522.71 v -292.35 h 127.9 v 292.35 c 0,105.8 86.07,191.87 191.86,191.87 v 127.9 c -176.32,0 -319.76,-143.45 -319.76,-319.77" /><path
         id="path58"
         style="fill:#231f20;fill-opacity:1;fill-rule:nonzero;stroke:none"
         d="m 8517.29,2349.12 c -105.79,0 -191.86,86.07 -191.86,191.86 0,105.79 86.07,191.86 191.86,191.86 105.78,0 191.86,-86.07 191.86,-191.86 0,-105.79 -86.08,-191.86 -191.86,-191.86 z m 0,511.62 c -176.32,0 -319.77,-143.45 -319.77,-319.76 0,-176.31 143.45,-319.76 319.77,-319.76 176.31,0 319.76,143.45 319.76,319.76 0,176.31 -143.45,319.76 -319.76,319.76" /><path
         id="path60"
         style="fill:#231f20;fill-opacity:1;fill-rule:nonzero;stroke:none"
         d="m 9220.77,2349.12 c -105.79,0 -191.86,86.07 -191.86,191.86 0,105.79 86.07,191.86 191.86,191.86 105.79,0 191.86,-86.07 191.86,-191.86 0,-105.79 -86.07,-191.86 -191.86,-191.86 z m 0,511.62 c -176.32,0 -319.76,-143.45 -319.76,-319.76 0,-176.31 143.44,-319.76 319.76,-319.76 71.93,0 138.38,23.89 191.86,64.13 v -45.86 h 127.9 v 301.49 c 0,176.31 -143.45,319.76 -319.76,319.76" /><path
         id="path62"
         style="fill:#231f20;fill-opacity:1;fill-rule:nonzero;stroke:none"
         d="m 9924.24,2349.12 c -105.79,0 -191.86,86.07 -191.86,191.86 0,105.79 86.07,191.86 191.86,191.86 105.76,0 191.86,-86.07 191.86,-191.86 0,-105.79 -86.1,-191.86 -191.86,-191.86 z m 191.86,803.98 v -356.49 c -53.5,40.24 -119.93,64.13 -191.86,64.13 -176.32,0 -319.76,-143.45 -319.76,-319.76 0,-176.31 143.44,-319.76 319.76,-319.76 176.36,0 319.76,143.45 319.76,319.76 v 612.12 h -127.9" /></g></g></svg>