<?xml version="1.0" encoding="UTF-8"?>
<svg width="771px" height="227px" viewBox="0 0 771 227" version="1.1" xmlns="http://www.w3.org/2000/svg" xmlns:xlink="http://www.w3.org/1999/xlink">
    <!-- Generator: Sketch 48.2 (47327) - http://www.bohemiancoding.com/sketch -->
    <title>Gumroad</title>
    <desc>Created with Sketch.</desc>
    <defs>
        <path d="M144.537494,84.491 C149.847871,84.491 154.16199,80.183 154.16199,74.87 C154.16199,69.559 149.847871,65.249 144.537494,65.249 C139.221114,65.249 134.914997,69.559 134.914997,74.87 C134.914997,80.183 139.221114,84.491 144.537494,84.491 Z M196.558988,216.429 C201.880368,216.429 206.186485,212.123 206.186485,206.811 C206.186485,201.496 201.880368,197.189 196.558988,197.189 C191.252612,197.189 186.938492,201.496 186.938492,206.811 C186.938492,212.123 191.252612,216.429 196.558988,216.429 Z M26.3108251,197.567 L178.698355,197.567 C182.054225,191.11 188.793974,186.684 196.558988,186.684 C207.662868,186.684 216.693211,195.712 216.693211,206.811 C216.693211,217.907 207.662868,226.935 196.558988,226.935 C188.136803,226.935 180.91693,221.732 177.921153,214.375 L26.3108251,214.375 C11.5770031,214.375 0.0370096004,203.203 0.0370096004,188.943 L0.0370096004,26.769 C0.0370096004,12.295 12.070131,0.065 26.3108251,0.065 L188.522903,0.065 C202.793605,0.065 214.403617,12.045 214.403617,26.769 L214.403617,122.972 C214.403617,137.458 202.793605,149.241 188.522903,149.241 L92.2949416,149.241 C77.6021303,149.241 65.18791,137.212 65.18791,122.972 L65.18791,92.738 C65.18791,78.709 77.3480643,67.299 92.2949416,67.299 L125.896658,67.299 C128.897436,59.946 136.11831,54.745 144.537494,54.745 C155.640374,54.745 164.670716,63.773 164.670716,74.87 C164.670716,85.969 155.640374,94.998 144.537494,94.998 C136.768478,94.998 130.026729,90.568 126.671859,84.108 L92.2949416,84.108 C87.3446575,84.108 82.0002711,87.407 82.0002711,92.738 L82.0002711,122.972 C82.0002711,127.925 86.9075441,132.433 92.2949416,132.433 L188.522903,132.433 C193.606222,132.433 197.591256,128.278 197.591256,122.972 L197.591256,26.769 C197.591256,21.406 193.438179,16.874 188.522903,16.874 L26.3108251,16.874 C21.2705176,16.874 16.8493708,21.499 16.8493708,26.769 L16.8493708,188.943 C16.8493708,193.859 20.9174261,197.567 26.3108251,197.567 Z" id="path-1"></path>
    </defs>
    <g id="Page-1" stroke="none" stroke-width="1" fill="none" fill-rule="evenodd">
        <g id="gumroad" transform="translate(385.500000, 113.500000) scale(1, -1) translate(-385.500000, -113.500000) ">
            <path d="M144.537494,84.491 C149.847871,84.491 154.16199,80.183 154.16199,74.87 C154.16199,69.559 149.847871,65.249 144.537494,65.249 C139.221114,65.249 134.914997,69.559 134.914997,74.87 C134.914997,80.183 139.221114,84.491 144.537494,84.491 Z M196.558988,216.429 C201.880368,216.429 206.186485,212.123 206.186485,206.811 C206.186485,201.496 201.880368,197.189 196.558988,197.189 C191.252612,197.189 186.938492,201.496 186.938492,206.811 C186.938492,212.123 191.252612,216.429 196.558988,216.429 Z M26.3108251,197.567 L178.698355,197.567 C182.054225,191.11 188.793974,186.684 196.558988,186.684 C207.662868,186.684 216.693211,195.712 216.693211,206.811 C216.693211,217.907 207.662868,226.935 196.558988,226.935 C188.136803,226.935 180.91693,221.732 177.921153,214.375 L26.3108251,214.375 C11.5770031,214.375 0.0370096004,203.203 0.0370096004,188.943 L0.0370096004,26.769 C0.0370096004,12.295 12.070131,0.065 26.3108251,0.065 L188.522903,0.065 C202.793605,0.065 214.403617,12.045 214.403617,26.769 L214.403617,122.972 C214.403617,137.458 202.793605,149.241 188.522903,149.241 L92.2949416,149.241 C77.6021303,149.241 65.18791,137.212 65.18791,122.972 L65.18791,92.738 C65.18791,78.709 77.3480643,67.299 92.2949416,67.299 L125.896658,67.299 C128.897436,59.946 136.11831,54.745 144.537494,54.745 C155.640374,54.745 164.670716,63.773 164.670716,74.87 C164.670716,85.969 155.640374,94.998 144.537494,94.998 C136.768478,94.998 130.026729,90.568 126.671859,84.108 L92.2949416,84.108 C87.3446575,84.108 82.0002711,87.407 82.0002711,92.738 L82.0002711,122.972 C82.0002711,127.925 86.9075441,132.433 92.2949416,132.433 L188.522903,132.433 C193.606222,132.433 197.591256,128.278 197.591256,122.972 L197.591256,26.769 C197.591256,21.406 193.438179,16.874 188.522903,16.874 L26.3108251,16.874 C21.2705176,16.874 16.8493708,21.499 16.8493708,26.769 L16.8493708,188.943 C16.8493708,193.859 20.9174261,197.567 26.3108251,197.567 Z" id="Shape" fill="#231F20" fill-rule="nonzero"></path>
            <g id="Clipped">
                <mask id="mask-2" fill="white">
                    <use xlink:href="#path-1"></use>
                </mask>
                <g id="Shape"></g>
                <g id="Group" mask="url(#mask-2)" fill="#ABB3C1" fill-rule="nonzero">
                    <g transform="translate(-6.601713, -6.900000)" id="Shape">
                        <polyline points="0.0770199792 229.198 32.2323612 229.198 32.2323612 194.908 0.0770199792 194.908 0.0770199792 229.198"></polyline>
                        <polyline points="0.0770199792 34.342 32.2323612 34.342 32.2323612 0.052 0.0770199792 0.052 0.0770199792 34.342"></polyline>
                        <polyline points="194.494453 34.342 226.649794 34.342 226.649794 0.052 194.494453 0.052 194.494453 34.342"></polyline>
                        <polyline points="194.494453 163.49 226.649794 163.49 226.649794 129.2 194.494453 129.2 194.494453 163.49"></polyline>
                        <polyline points="67.3724766 163.49 99.5278179 163.49 99.5278179 129.2 67.3724766 129.2 67.3724766 163.49"></polyline>
                        <polyline points="67.3724766 100.311 99.5278179 100.311 99.5278179 66.021 67.3724766 66.021 67.3724766 100.311"></polyline>
                        <polyline points="31.6011975 33.669 0.0770199792 33.669 0.0770199792 195.58 31.6011975 195.58 31.6011975 33.669"></polyline>
                        <polyline points="195.124616 0.052 31.6011975 0.052 31.6011975 33.669 195.124616 33.669 195.124616 0.052"></polyline>
                        <polyline points="226.649794 129.872 195.124616 129.872 195.124616 33.669 226.649794 33.669 226.649794 129.872"></polyline>
                        <polyline points="98.8966541 163.49 195.124616 163.49 195.124616 129.872 98.8966541 129.872 98.8966541 163.49"></polyline>
                        <polyline points="67.3724766 99.638 98.8966541 99.638 98.8966541 129.872 67.3724766 129.872 67.3724766 99.638"></polyline>
                        <polyline points="179.120464 236.148 179.120464 229.198 31.6011975 229.198 31.6011975 195.58 179.120464 195.58 179.120464 188.631 226.649794 188.631 226.649794 236.148 179.120464 236.148"></polyline>
                        <polyline points="127.752139 105.408 127.752139 99.638 98.8966541 99.638 98.8966541 66.021 127.752139 66.021 127.752139 58.133 175.037405 58.133 175.037405 105.408 127.752139 105.408"></polyline>
                    </g>
                </g>
            </g>
            <path d="M299.458681,90.412 C288.876936,90.412 280.267702,99.019 280.267702,109.598 C280.267702,120.177 288.876936,128.784 299.458681,128.784 C310.039425,128.784 318.649659,120.177 318.649659,109.598 C318.649659,99.019 310.039425,90.412 299.458681,90.412 Z M299.458681,141.574 C281.822106,141.574 267.474384,127.229 267.474384,109.598 C267.474384,91.967 281.822106,77.622 299.458681,77.622 C306.653547,77.622 313.300271,80.011 318.649659,84.035 L318.649659,61.177 C318.649659,50.598 310.039425,41.991 299.458681,41.991 L299.458681,29.201 C317.094255,29.201 331.442977,43.546 331.442977,61.177 L331.442977,109.598 C331.442977,127.229 317.094255,141.574 299.458681,141.574 Z" id="Shape" fill="#ABB3C1" fill-rule="nonzero"></path>
            <path d="M389.018913,107.771 C389.018913,97.193 380.40968,88.585 369.827935,88.585 C359.24619,88.585 350.636956,97.193 350.636956,107.771 L350.636956,137.007 L337.843638,137.007 L337.843638,107.771 C337.843638,90.14 352.19136,75.796 369.827935,75.796 C387.46451,75.796 401.812231,90.14 401.812231,107.771 L401.812231,137.007 L389.018913,137.007 L389.018913,107.771" id="Shape" fill="#ABB3C1" fill-rule="nonzero"></path>
            <path d="M491.365462,139.748 C480.913751,139.748 471.617339,134.708 465.777824,126.934 C459.936309,134.708 450.640898,139.748 440.190187,139.748 C422.553612,139.748 408.20589,125.403 408.20589,107.771 L408.20589,78.536 L420.999209,78.536 L420.999209,107.771 C420.999209,118.351 429.608442,126.958 440.190187,126.958 C450.771932,126.958 459.381165,118.351 459.381165,107.771 L459.381165,78.536 L472.174484,78.536 L472.174484,107.771 C472.174484,118.351 480.783717,126.958 491.365462,126.958 C501.947207,126.958 510.55644,118.351 510.55644,107.771 L510.55644,78.536 L523.349759,78.536 L523.349759,107.771 C523.349759,125.403 509.001037,139.748 491.365462,139.748" id="Shape" fill="#ABB3C1" fill-rule="nonzero"></path>
            <path d="M530.660655,107.771 L530.660655,78.536 L543.453974,78.536 L543.453974,107.771 C543.453974,118.351 552.063207,126.958 562.644952,126.958 L562.644952,139.748 C545.008377,139.748 530.660655,125.403 530.660655,107.771" id="Shape" fill="#ABB3C1" fill-rule="nonzero"></path>
            <path d="M598.284197,90.412 C587.702452,90.412 579.093219,99.019 579.093219,109.598 C579.093219,120.177 587.702452,128.784 598.284197,128.784 C608.864942,128.784 617.475175,120.177 617.475175,109.598 C617.475175,99.019 608.864942,90.412 598.284197,90.412 Z M598.284197,141.574 C580.647622,141.574 566.2989,127.229 566.2989,109.598 C566.2989,91.967 580.647622,77.622 598.284197,77.622 C615.919772,77.622 630.268494,91.967 630.268494,109.598 C630.268494,127.229 615.919772,141.574 598.284197,141.574 Z" id="Shape" fill="#ABB3C1" fill-rule="nonzero"></path>
            <path d="M668.65045,90.412 C658.068705,90.412 649.459472,99.019 649.459472,109.598 C649.459472,120.177 658.068705,128.784 668.65045,128.784 C679.232195,128.784 687.841428,120.177 687.841428,109.598 C687.841428,99.019 679.232195,90.412 668.65045,90.412 Z M668.65045,141.574 C651.013875,141.574 636.666153,127.229 636.666153,109.598 C636.666153,91.967 651.013875,77.622 668.65045,77.622 C675.845317,77.622 682.492041,80.011 687.841428,84.035 L687.841428,79.449 L700.634747,79.449 L700.634747,109.598 C700.634747,127.229 686.286025,141.574 668.65045,141.574 Z" id="Shape" fill="#ABB3C1" fill-rule="nonzero"></path>
            <path d="M739.015703,90.412 C728.433958,90.412 719.824725,99.019 719.824725,109.598 C719.824725,120.177 728.433958,128.784 739.015703,128.784 C749.594447,128.784 758.206681,120.177 758.206681,109.598 C758.206681,99.019 749.594447,90.412 739.015703,90.412 Z M758.206681,170.81 L758.206681,135.161 C752.855293,139.185 746.21057,141.574 739.015703,141.574 C721.379128,141.574 707.031406,127.229 707.031406,109.598 C707.031406,91.967 721.379128,77.622 739.015703,77.622 C756.656279,77.622 771,91.967 771,109.598 L771,170.81 L758.206681,170.81 Z" id="Shape" fill="#ABB3C1" fill-rule="nonzero"></path>
        </g>
    </g>
</svg>