<?xml version="1.0" encoding="UTF-8"?>
<svg width="102px" height="39px" viewBox="0 0 102 39" version="1.1" xmlns="http://www.w3.org/2000/svg" xmlns:xlink="http://www.w3.org/1999/xlink">
    <!-- Generator: Sketch 48.2 (47327) - http://www.bohemiancoding.com/sketch -->
    <title>paddle</title>
    <desc>Created with Sketch.</desc>
    <defs></defs>
    <g id="Page-1" stroke="none" stroke-width="1" fill="none" fill-rule="evenodd">
        <g id="paddle" transform="translate(1.000000, 1.000000)" fill="#ABB3C1" stroke="#ABB3C1" stroke-width="1.006">
            <path d="M33.484,21.632 C33.484,23.506 31.029,25.079 28.648,25.079 C27.012,25.079 25.45,24.03 25.45,22.531 C25.45,20.883 26.268,19.983 28.35,19.309 C30.136,18.709 31.773,18.409 33.484,18.185 L33.484,21.632 Z M30.062,7.842 C27.83,7.842 25.025,8.731 25.025,8.731 C24.109,8.985 23.255,9.957 23.116,10.902 L22.828,12.867 C25.406,12.002 27.533,10.915 29.988,10.915 C31.475,10.915 33.484,11.515 33.484,15.187 C32.294,15.262 30.211,15.562 28.202,16.087 C24.111,17.135 21.73,19.534 21.73,22.681 C21.73,25.904 24.334,28.152 27.384,28.152 C30.211,28.152 32.144,27.483 33.484,25.835 C33.558,26.509 33.551,26.207 33.551,26.207 C33.842,27.116 34.85,27.852 35.801,27.852 L37.223,27.852 L37.223,13.731 C37.223,10.273 34.153,7.842 30.062,7.842 Z M11.028,24.664 C9.375,24.78 7.963,24.343 7.018,23.384 L7.018,12.046 C8.189,11.792 9.149,11.611 9.554,11.583 C12.591,11.37 15.174,13.003 15.468,17.203 C15.684,20.295 14.583,24.413 11.028,24.663 L11.028,24.664 Z M8.88,7.88 C7.472,7.979 2.538,9.09 2.538,9.09 C1.611,9.292 0.713,10.215 0.533,11.148 L0,13.906 C0.876,13.551 3.124,12.952 5.243,12.45 L5.574,12.901 L3.516,15.656 C3.232,16.036 3.001,16.73 3.001,17.206 L3.001,37 L5.042,36.198 C6.134,35.769 7.018,34.47 7.018,33.296 L7.018,27.53 C8.058,28.174 9.638,28.52 11.458,28.393 C16.494,28.041 19.926,23.624 19.478,17.205 C18.996,10.31 14.73,7.47 8.88,7.88 Z M66.731,25.099 C63.298,25.099 62.029,22.343 62.029,18.098 C62.029,14.672 63.074,11.097 66.507,11.097 C70.239,11.097 71.358,14.449 71.358,17.725 C71.358,22.269 70.015,25.099 66.731,25.099 Z M72.257,-1.11020608e-16 L71.106,-1.11020608e-16 L71.106,10.596 C70.061,8.883 67.874,7.895 65.785,7.895 C60.934,7.895 58.149,11.924 58.149,18.329 C58.149,24.51 61.009,28.152 65.71,28.152 C68.471,28.152 70.188,27.109 71.233,25.397 C71.308,26.141 71.311,26.077 71.311,26.077 C71.433,27.017 72.311,27.779 73.266,27.779 L74.849,27.779 L74.849,2.578 C74.847146,1.8924146 74.5730189,1.23564577 74.0869241,0.75217644 C73.6008292,0.268707113 72.9425854,-0.00185903118 72.257,-4.4408921e-16 Z M93.078,10.838 C94.573,10.838 96.25,11.705 96.25,13.422 C96.25,17.305 90.145,18.079 87.454,18.303 C87.454,13.709 89.864,10.838 93.078,10.838 Z M87.814,21.358 C90.132,21.058 100,20.536 100,13.368 C100,9.634 97.234,7.842 93.047,7.842 C87.366,7.842 83.702,12.322 83.702,18.072 C83.702,24.269 86.767,28.152 92.599,28.152 C94.617,28.152 97.327,27.447 97.327,27.447 C98.261,27.239 99.186,26.308 99.398,25.38 L100,22.754 C97.286,24.476 95.365,25.091 92.673,25.091 C90.655,25.091 88.188,23.971 87.814,21.357 L87.814,21.358 Z M47.819,25.099 C44.386,25.099 43.117,22.343 43.117,18.098 C43.117,14.672 44.162,11.097 47.595,11.097 C51.327,11.097 52.446,14.449 52.446,17.725 C52.446,22.269 51.103,25.099 47.819,25.099 Z M53.545,1.11023997e-16 L52.394,1.11023997e-16 L52.394,10.596 C51.349,8.883 49.162,7.895 47.072,7.895 C42.222,7.895 39.437,11.924 39.437,18.329 C39.437,24.51 42.296,28.152 46.997,28.152 C49.759,28.152 51.476,27.109 52.521,25.397 C52.595,26.141 52.599,26.077 52.599,26.077 C52.721,27.017 53.599,27.779 54.554,27.779 L56.137,27.779 L56.137,2.578 C56.135146,1.8924146 55.8610189,1.23564577 55.3749241,0.75217644 C54.8888292,0.268707113 54.2305854,-0.00185903118 53.545,-2.22042911e-16 Z M79.577,0 L77.666,0 L77.666,26.033 C77.666,26.983 78.456,27.75 79.429,27.75 L81.489,27.75 L81.489,1.858 C81.489,0.832 80.633,0 79.577,0 Z" id="Shape"></path>
        </g>
    </g>
</svg>