<?xml version="1.0" encoding="UTF-8"?>
<svg width="21px" height="21px" viewBox="0 0 21 21" version="1.1" xmlns="http://www.w3.org/2000/svg" xmlns:xlink="http://www.w3.org/1999/xlink">
    <!-- Generator: Sketch 51.2 (57519) - http://www.bohemiancoding.com/sketch -->
    <title>Shape</title>
    <desc>Created with Sketch.</desc>
    <defs></defs>
    <g id="Page-1" stroke="none" stroke-width="1" fill="none" fill-rule="evenodd">
        <path d="M13.5719693,10.7807145 L17.1594245,4.58595861 L18.8929862,10.7807145 L17.1594245,16.9740538 L13.5719693,10.7807145 Z M11.8234079,11.786702 L15.4114463,17.9805412 L9.16260777,16.3796445 L4.64824753,11.786702 L11.8234079,11.786702 Z M15.410613,3.57913786 L11.8234079,9.7738938 L4.64824753,9.7738938 L9.16260777,5.18070118 L15.410613,3.57913786 Z M20.532049,8.67257421 L18.3434097,0.530175966 L10.1743451,2.71231536 L8.96511023,4.83837212 L6.51130757,4.82078901 L0.532048971,10.7812979 L6.51130757,16.74039 L6.51155757,16.74039 L8.96427691,16.7222236 L10.1752618,18.8482804 L18.3434097,21.0300864 L20.532049,12.8891881 L19.2891479,10.7807145 L20.532049,8.67257421 Z" id="Shape" fill="#ABB3C1" fill-rule="nonzero"></path>
    </g>
</svg>