<?xml version="1.0" encoding="UTF-8"?>
<svg width="403px" height="407px" viewBox="0 0 403 407" version="1.1" xmlns="http://www.w3.org/2000/svg" xmlns:xlink="http://www.w3.org/1999/xlink">
    <!-- Generator: Sketch 51.2 (57519) - http://www.bohemiancoding.com/sketch -->
    <title>Group</title>
    <desc>Created with Sketch.</desc>
    <defs></defs>
    <g id="Page-1" stroke="none" stroke-width="1" fill="none" fill-rule="evenodd">
        <g id="UE_Logo_Icon_Black" transform="translate(-95.000000, -95.000000)" fill="#ABB3C1">
            <g id="Group" transform="translate(95.000000, 95.000000)">
                <path d="M289.474,263.623 C282.228,263.587 279.384,259.326 279.384,259.326 C278.993,257.347 278.318,228.751 278.078,200.14 C277.832,170.498 278.048,140.834 279.532,140.745 C287.888,125.062 314.547,93.438 314.547,93.438 C264.762,103.253 237.611,135.875 237.611,135.875 C229.599,129.559 213.241,130.611 213.241,130.611 C220.897,134.823 228.556,147.099 228.556,157.267 L228.556,257.223 C228.556,257.223 211.847,271.949 198.965,271.949 C191.35,271.949 186.656,267.782 184.089,264.374 C182.315,262.015 181.557,260.024 181.557,260.024 L181.557,136.573 C179.977,137.716 177.733,138.67 175.425,138.656 C172.688,138.645 169.859,137.272 167.934,133.237 C166.482,130.201 165.546,125.654 165.546,119.038 C165.546,96.245 191.308,81.161 191.308,81.161 C158.583,89.929 128.296,106.764 87.911,153.058 C47.53,199.355 55.188,237.582 55.188,237.582 C55.188,237.582 66.328,211.276 93.135,183.571 C105.83,170.448 115.323,166.059 121.8,166.043 C129,166.022 132.473,171.407 132.473,176.207 L132.473,270.197 C132.473,279.467 126.498,281.493 120.99,281.393 C116.289,281.305 111.934,279.671 111.934,279.671 C139.435,319.65 205.233,325.262 205.233,325.262 L234.127,294.398 L234.804,294.979 L261.28,317.542 C309.671,288.787 332.998,235.476 332.998,235.476 C311.409,258.337 297.643,263.666 289.474,263.623" id="Fill-1"></path>
                <path d="M201.346,0.946 C90.388,0.946 0.44,91.658 0.44,203.558 C0.44,315.457 90.388,406.168 201.346,406.168 C312.304,406.168 402.253,315.457 402.253,203.558 C402.253,91.658 312.304,0.946 201.346,0.946 M201.346,9.863 C252.648,9.863 300.881,30.011 337.156,66.595 C373.432,103.178 393.411,151.82 393.411,203.558 C393.411,255.295 373.432,303.936 337.156,340.521 C300.881,377.104 252.648,397.252 201.346,397.252 C150.045,397.252 101.812,377.104 65.536,340.521 C29.261,303.936 9.282,255.295 9.282,203.558 C9.282,151.82 29.261,103.178 65.536,66.595 C101.812,30.011 150.045,9.863 201.346,9.863" id="Fill-8"></path>
            </g>
        </g>
    </g>
</svg>