<?xml version="1.0" encoding="UTF-8"?>
<svg width="20px" height="20px" viewBox="0 0 20 20" version="1.1" xmlns="http://www.w3.org/2000/svg" xmlns:xlink="http://www.w3.org/1999/xlink">
    <!-- Generator: Sketch 48.2 (47327) - http://www.bohemiancoding.com/sketch -->
    <title>Shape</title>
    <desc>Created with Sketch.</desc>
    <defs></defs>
    <g id="Page-1" stroke="none" stroke-width="1" fill="none" fill-rule="evenodd">
        <g id="wordpress" fill="#ABB3C1" fill-rule="nonzero">
            <path d="M10.158,10.786 L7.46,18.625 C8.266,18.862 9.117,18.991 10,18.991 C11.047,18.991 12.051,18.81 12.986,18.481 C12.962,18.443 12.94,18.402 12.921,18.357 L10.158,10.786 Z M1.009,10 C1.009,13.559 3.077,16.634 6.076,18.092 L1.788,6.341 C1.289,7.459 1.009,8.696 1.009,10 Z M16.069,9.546 C16.069,8.434 15.67,7.665 15.328,7.066 C14.872,6.325 14.445,5.698 14.445,4.957 C14.445,4.131 15.072,3.361 15.955,3.361 C15.995,3.361 16.033,3.366 16.071,3.368 C14.472,1.904 12.34,1.009 10,1.009 C6.859,1.009 4.096,2.621 2.488,5.061 C2.699,5.068 2.898,5.072 3.067,5.072 C4.007,5.072 5.463,4.958 5.463,4.958 C5.947,4.93 6.004,5.642 5.52,5.699 C5.52,5.699 5.033,5.756 4.491,5.784 L7.765,15.523 L9.733,9.622 L8.332,5.784 C7.848,5.756 7.389,5.699 7.389,5.699 C6.904,5.67 6.961,4.93 7.446,4.958 C7.446,4.958 8.93,5.072 9.814,5.072 C10.754,5.072 12.211,4.958 12.211,4.958 C12.696,4.93 12.753,5.642 12.268,5.699 C12.268,5.699 11.78,5.756 11.239,5.784 L14.488,15.449 L15.385,12.453 C15.841,11.284 16.069,10.316 16.069,9.546 Z M17.889,5.686 C17.928,5.972 17.949,6.279 17.949,6.61 C17.949,7.522 17.778,8.548 17.265,9.83 L14.519,17.77 C17.192,16.212 18.989,13.316 18.989,9.999 C18.991,8.436 18.591,6.967 17.889,5.686 Z M10,20 C4.486,20 0,15.514 0,10 C0,4.486 4.486,0 10,0 C15.514,0 20,4.486 20,10 C20,15.514 15.514,20 10,20 Z" id="Shape"></path>
        </g>
    </g>
</svg>